User Type,Username,Date,Text
,anarchymedes,2011-04-20T18:10Z,"Duration: 00:54:26.20, start: 0.000000, bitrate: 1797 kb/s
Stream #0.0: Video: mpeg4, yuv420p, 688x368 [PAR 1:1 DAR 43:23], 25 tbr, 25 tbn, 25 tbc
Stream #0.1: Audio: mp3, 48000 Hz, 2 channels, s16, 128 kb/s

SWE subtitlers hardcoded"
